<?xml version="1.0" encoding="iso-8859-1"?>
<!-- Generator: Adobe Illustrator 19.0.0, SVG Export Plug-In . SVG Version: 6.00 Build 0)  -->
<svg version="1.1" id="Capa_1" xmlns="http://www.w3.org/2000/svg" xmlns:xlink="http://www.w3.org/1999/xlink" x="0px" y="0px"
	 viewBox="0 0 473.286 473.286" style="enable-background:new 0 0 473.286 473.286;" xml:space="preserve">
<g>
	<g>
		<g>
			<rect x="84.643" y="84.531" width="161" height="101"/>
			<path d="M342.644,292.074c0,0.103,0,0.207-0.001,0.31v27.666c0,28.167,22.833,51,51,51c28.167,0,51-22.833,51-51V161.88
				c0.039-15.921-5.938-31.27-16.734-42.972l-78.222-89.153l-12.037,10.55l63.132,71.976c-21.053,1.455-36.939,19.702-35.484,40.754
				c1.386,20.047,18.062,35.594,38.156,35.575c9.26-0.042,18.198-3.405,25.189-9.479V320.05c0,19.33-15.67,35-35,35s-35-15.67-35-35
				v-27.666c0.106-24.665-19.803-44.747-44.469-44.853c-0.091,0-0.182,0-0.273,0h-26.258v16h26.258
				C329.72,263.476,342.589,276.255,342.644,292.074z M425.634,150.395c-0.014,12.263-9.953,22.201-22.216,22.215
				c-12.27,0-22.216-9.946-22.216-22.216c0-12.27,9.946-22.216,22.216-22.216c12.27,0,22.216,9.946,22.216,22.216
				C425.634,150.394,425.634,150.395,425.634,150.395z"/>
			<path d="M465.286,427.531H279.643V59.043c0.074-12.88-10.284-23.394-23.164-23.512H70.643c-12.859,0-23,10.652-23,23.512v368.488
				H8c-4.418,0-8,3.582-8,8s3.582,8,8,8h457.286c4.418,0,8-3.582,8-8S469.704,427.531,465.286,427.531z M261.643,193.531
				c0,4.418-3.582,8-8,8h-177c-4.418,0-8-3.582-8-8v-117c0-4.418,3.582-8,8-8h177c4.418,0,8,3.582,8,8V193.531z"/>
		</g>
	</g>
</g>
<g>
</g>
<g>
</g>
<g>
</g>
<g>
</g>
<g>
</g>
<g>
</g>
<g>
</g>
<g>
</g>
<g>
</g>
<g>
</g>
<g>
</g>
<g>
</g>
<g>
</g>
<g>
</g>
<g>
</g>
</svg>
