<svg id="Capa_1" enable-background="new 0 0 510.002 510.002" height="512" viewBox="0 0 510.002 510.002" width="512" xmlns="http://www.w3.org/2000/svg"><g><path d="m80 .001c-50.076 0-80 40.676-80 80 0 56.733 67.961 109.664 70.854 111.89l9.146 7.035 9.146-7.035c2.53-1.946 54.781-42.639 67.89-90.749.028-.103.056-.206.083-.31 1.573-5.823 2.548-11.807 2.813-17.834.042-.998.068-1.998.068-2.998 0-39.323-29.924-79.999-80-79.999zm15 95h-30v-30h30z"/><path d="m356.726 480.001h-239.226c-12.406 0-22.5-10.094-22.5-22.5s10.094-22.5 22.5-22.5h150c28.948 0 52.5-23.552 52.5-52.5s-23.552-52.5-52.5-52.5h-150c-12.406 0-22.5-10.094-22.5-22.5v-5c0-12.406 10.094-22.5 22.5-22.5h275c28.948 0 52.5-23.552 52.5-52.5v-5c0-28.948-23.552-52.5-52.5-52.5h-239.226l-27.73 30h266.956c12.406 0 22.5 10.094 22.5 22.5v5c0 12.406-10.094 22.5-22.5 22.5h-275c-28.948 0-52.5 23.552-52.5 52.5v5c0 28.948 23.552 52.5 52.5 52.5h150c12.406 0 22.5 10.094 22.5 22.5s-10.094 22.5-22.5 22.5h-150c-28.948 0-52.5 23.552-52.5 52.5s23.552 52.5 52.5 52.5h266.956z"/><path d="m430 310.001c-50.076 0-80 40.676-80 80 0 1 .027 2 .068 2.998.265 6.028 1.241 12.013 2.814 17.836.027.102.055.204.082.306 13.109 48.11 65.361 88.805 67.89 90.75l9.146 7.035c11.825-10.657 75.75-52.693 80.002-118.923-.002-39.326-29.926-80.002-80.002-80.002zm15 95h-30v-30h30z"/></g></svg>