<?xml version="1.0" encoding="iso-8859-1"?>
<!-- Generator: Adobe Illustrator 19.0.0, SVG Export Plug-In . SVG Version: 6.00 Build 0)  -->
<svg version="1.1" id="Capa_1" xmlns="http://www.w3.org/2000/svg" xmlns:xlink="http://www.w3.org/1999/xlink" x="0px" y="0px"
	 viewBox="0 0 425.6 425.6" style="enable-background:new 0 0 425.6 425.6;" xml:space="preserve">
<g>
	<g>
		<g>
			<path d="M77.653,108.267L47.147,77.973C21.333,109.547,4.267,148.587,0,191.467h43.093
				C46.933,160.32,59.307,131.947,77.653,108.267z"/>
			<polygon points="169.6,308.8 234.667,259.947 297.6,212.8 234.667,165.653 169.6,116.8 			"/>
			<path d="M190.933,43.627V0.533C148.053,4.8,109.013,21.867,77.44,47.68l30.293,30.507
				C131.413,59.84,159.787,47.467,190.933,43.627z"/>
			<path d="M234.667,0.533v43.093C318.293,54.72,382.933,126.4,382.933,212.8s-64.64,158.08-148.267,169.173v43.093
				C341.973,413.76,425.6,322.88,425.6,212.8S341.973,11.84,234.667,0.533z"/>
			<path d="M43.093,234.133H0c4.267,42.88,21.333,81.92,47.147,113.493l30.507-30.507C59.307,293.653,46.933,265.28,43.093,234.133z
				"/>
			<path d="M77.44,377.92c31.573,25.813,70.827,42.88,113.493,47.147v-43.093c-31.147-3.84-59.52-16.213-83.2-34.56L77.44,377.92z"
				/>
		</g>
	</g>
</g>
<g>
</g>
<g>
</g>
<g>
</g>
<g>
</g>
<g>
</g>
<g>
</g>
<g>
</g>
<g>
</g>
<g>
</g>
<g>
</g>
<g>
</g>
<g>
</g>
<g>
</g>
<g>
</g>
<g>
</g>
</svg>
